<?xml version="1.0" encoding="utf-8"?>
<!-- Generator: Adobe Illustrator 20.1.0, SVG Export Plug-In . SVG Version: 6.00 Build 0)  -->
<svg version="1.1" id="图层_1" xmlns="http://www.w3.org/2000/svg" xmlns:xlink="http://www.w3.org/1999/xlink" x="0px" y="0px"
	 viewBox="0 0 595.3 841.9" style="enable-background:new 0 0 595.3 841.9;" xml:space="preserve">
<style type="text/css">
	.st0{fill:#58B8DF;}
	.st1{fill:#DC5140;}
	.st2{fill:#0F7DC3;}
	.st3{font-family:'Arial-BoldMT';}
	.st4{font-size:55.0594px;}
</style>
<g id="图层_1_1_">
	<path class="st0" d="M135.5,84.7c-0.5-1.7-2.2-2.8-3.9-2.3c-0.6,0.2-1.1,0.5-1.6,0.9l-6.6-5.1c1.7-3,0.7-6.8-2.3-8.6
		c-2.9-1.8-6.8-0.8-8.6,2.1l-8.6-3.7c0.1-0.3,0.1-0.6,0-0.9c-0.2-1-1.3-1.7-2.3-1.4c-1,0.3-1.7,1.3-1.4,2.4c0.1,0.4,0.3,0.7,0.5,0.9
		l-7,9.8c0,0-0.1,0-0.1-0.1c-1.9-1.1-4.3-0.5-5.4,1.4c-1.1,1.9-0.5,4.3,1.4,5.4c0.1,0,0.1,0.1,0.2,0.1l-4.3,8.8
		c-0.7-0.3-1.5-0.4-2.3-0.1c-2.1,0.5-3.3,2.6-2.8,4.7c0.5,2.1,2.6,3.3,4.7,2.8c0.8-0.2,1.5-0.7,2-1.3l7.7,5.4c0,0-0.1,0.1-0.1,0.2
		c-1.3,2.2-0.6,5,1.6,6.3c2.2,1.3,5,0.6,6.3-1.6c0.1-0.1,0.1-0.1,0.1-0.2l9.9,4.8c-0.1,0.3-0.1,0.7,0,1c0.3,1,1.3,1.7,2.4,1.4
		c1-0.3,1.7-1.3,1.4-2.4c-0.1-0.3-0.3-0.6-0.5-0.9l7-9.8c0.1,0,0.1,0,0.1,0.1c1.9,1.1,4.3,0.5,5.4-1.4c1-1.7,0.6-3.9-1-5.1l4.2-9.7
		c0.6,0.2,1.2,0.2,1.8,0C135,88.2,136,86.5,135.5,84.7z M123.1,78.8l6.6,5.1c-0.4,0.6-0.6,1.4-0.5,2.2l-7.6,2l-1.8-6.9
		C121.1,80.8,122.2,79.9,123.1,78.8z M119.2,81.3l1.8,6.9l-5.9,1.5c-0.5-1.7-1.6-3-3-3.9l2.9-5.1C116.3,81.4,117.8,81.6,119.2,81.3z
		 M121.1,102.1l-8.8,2.3l-1.6-5.9c1.5-0.5,2.7-1.5,3.6-2.8l7.1,4.2C121,100.6,120.9,101.3,121.1,102.1z M114.5,80.4l-3,5.1
		c-1.3-0.7-2.9-1-4.5-0.7l-1.6-5.9l6.5-1.7C112.4,78.5,113.3,79.6,114.5,80.4z M95.5,81.5l9.3-2.4l1.6,5.9c-1.7,0.5-3.1,1.6-4,2.9
		l-7.1-4.2C95.5,83,95.6,82.2,95.5,81.5z M103.7,68.7l8.5,3.7c-0.7,1.4-0.8,2.9-0.5,4.3l-6.5,1.7l-2.4-8.9
		C103.2,69.2,103.5,69,103.7,68.7z M101.2,69.4c0.3,0.2,0.7,0.2,1,0.2l2.4,8.9l-9.3,2.4c-0.2-0.6-0.6-1.2-1.1-1.6L101.2,69.4z
		 M94.9,84.3l7.1,4.2c-0.7,1.4-1,3.1-0.7,4.8l-5.9,1.5l-2.3-9C93.8,85.4,94.4,84.9,94.9,84.3z M86.1,94.7l4.3-8.9
		c0.7,0.2,1.4,0.3,2.1,0.1l2.3,9l-7.1,1.8C87.4,95.8,86.8,95.1,86.1,94.7z M95.1,105.4l-7.7-5.4c0.4-0.8,0.6-1.7,0.5-2.6l7.1-1.8
		l2.2,8.5C96.4,104.3,95.7,104.7,95.1,105.4z M97.8,103.9l-2.2-8.5l5.9-1.5c0.5,1.6,1.5,3,2.8,3.8l-3.8,6.5
		C99.6,103.8,98.7,103.7,97.8,103.9z M101.1,104.5l3.8-6.5c1.5,0.8,3.3,1.1,5.1,0.6c0,0,0,0,0,0l1.6,5.9l-8.7,2.2
		C102.6,105.8,102,105.1,101.1,104.5z M114,114c-0.5,0.1-0.8,0.4-1.1,0.8L103,110c0.3-0.9,0.4-1.8,0.2-2.6l8.7-2.2l2.4,8.9
		C114.1,114,114.1,114,114,114z M115.3,114.2c-0.2-0.1-0.3-0.1-0.5-0.2l-2.4-9l8.8-2.3c0.2,0.6,0.6,1.2,1.1,1.6L115.3,114.2z
		 M121.6,99.3l-7.1-4.2c0.7-1.4,1-3.1,0.7-4.8l5.9-1.5l2.3,9C122.7,98.1,122.1,98.6,121.6,99.3z M126.7,98c-0.8-0.4-1.8-0.6-2.7-0.3
		l-2.3-9l7.7-2c0.3,0.8,0.8,1.4,1.5,1.7L126.7,98z"/>
	<g id="图层_3">
		<circle class="st1" cx="117.9" cy="75.1" r="6.5"/>
	</g>
</g>
<text transform="matrix(0.9263 0 0 1 141 113.0469)" class="st2 st3 st4">BIGD</text>
</svg>
